<?xml version="1.0" standalone="no"?>
<!DOCTYPE svg PUBLIC "-//W3C//DTD SVG 20010904//EN"
 "http://www.w3.org/TR/2001/REC-SVG-20010904/DTD/svg10.dtd">
<svg version="1.0" xmlns="http://www.w3.org/2000/svg"
 width="452.000000pt" height="500.000000pt" viewBox="0 0 452.000000 500.000000"
 preserveAspectRatio="xMidYMid meet">

<g transform="translate(0.000000,500.000000) scale(0.100000,-0.100000)"
fill="#000000" stroke="none">
<path d="M2182 4986 c-46 -8 -86 -16 -89 -20 -3 -3 33 -24 81 -47 47 -23 84
-44 82 -46 -3 -3 -80 1 -173 7 -92 7 -214 10 -271 6 -101 -6 -192 -22 -192
-35 0 -3 25 -17 55 -30 30 -13 55 -27 55 -31 0 -4 -26 -17 -59 -29 -124 -47
-264 -155 -363 -280 -56 -70 -137 -211 -121 -211 5 0 25 4 46 9 38 9 38 9 22
-12 -34 -47 -76 -147 -82 -197 l-6 -54 30 22 31 22 -5 -63 c-7 -81 11 -211 48
-354 16 -63 29 -116 29 -118 0 -1 -11 -6 -25 -9 -69 -17 -85 -152 -40 -332 47
-187 117 -291 211 -316 43 -12 44 -13 44 -54 0 -62 27 -206 51 -270 12 -31 37
-73 55 -94 l34 -37 0 -231 0 -230 45 -60 c73 -97 234 -240 473 -421 l83 -62
-108 -117 c-59 -64 -118 -129 -131 -143 l-24 -27 81 -118 81 -119 -71 -300
c-38 -165 -72 -313 -76 -328 -3 -16 -9 -25 -13 -20 -8 8 -231 688 -293 893
-20 63 -49 151 -67 194 -44 112 -86 283 -100 406 -6 58 -15 128 -18 157 l-7
51 -171 -186 -172 -187 -243 -114 c-556 -260 -684 -324 -721 -358 -112 -107
-170 -388 -172 -833 l-1 -255 2259 -3 2259 -2 -6 262 c-13 504 -43 679 -140
810 -34 46 -87 74 -554 293 l-441 207 -71 82 c-38 44 -117 127 -174 184 l-104
104 -7 -109 c-3 -59 -15 -151 -25 -203 -11 -52 -112 -381 -226 -730 -114 -349
-210 -643 -212 -652 -3 -10 -8 -18 -12 -18 -6 0 -152 632 -151 658 0 6 34 64
76 126 89 134 96 105 -58 270 -57 61 -107 116 -111 123 -5 8 14 27 52 53 177
119 387 311 484 439 l47 63 0 228 c0 155 4 231 11 236 24 14 71 103 94 177 14
43 28 116 32 163 l6 86 51 22 c95 42 161 144 207 317 28 106 30 230 6 275 -9
18 -28 41 -43 51 l-26 19 36 180 c48 243 49 257 36 354 -14 105 -56 214 -115
304 -25 38 -45 70 -45 72 0 2 14 -2 31 -8 39 -13 44 -7 19 25 -32 40 -75 67
-147 92 l-65 23 -32 74 c-76 174 -181 266 -368 318 -95 27 -282 34 -396 16z"/>
</g>
</svg>
